<?xml version="1.0" encoding="UTF-8" standalone="no"?>
<!-- Created with Inkscape (http://www.inkscape.org/) -->

<svg
   xmlns:dc="http://purl.org/dc/elements/1.1/"
   xmlns:cc="http://creativecommons.org/ns#"
   xmlns:rdf="http://www.w3.org/1999/02/22-rdf-syntax-ns#"
   xmlns:svg="http://www.w3.org/2000/svg"
   xmlns="http://www.w3.org/2000/svg"
   xmlns:sodipodi="http://sodipodi.sourceforge.net/DTD/sodipodi-0.dtd"
   xmlns:inkscape="http://www.inkscape.org/namespaces/inkscape"
   width="128"
   height="128"
   id="svg2"
   sodipodi:version="0.32"
   inkscape:version="0.48+devel r10994"
   version="1.0"
   sodipodi:docname="wlev2harmonic.svg"
   inkscape:output_extension="org.inkscape.output.svg.inkscape"
   inkscape:export-filename="/media/WKDAT/Documents/opencpn_proj/icons/opencpn_icons/oxygen_opencpn/src/bitmaps/other_svg_src/logo.png"
   inkscape:export-xdpi="39.742039"
   inkscape:export-ydpi="39.742039">
  <defs
     id="defs4">
    <linearGradient
       id="linearGradient3176">
      <stop
         style="stop-color:#d6bf6a;stop-opacity:1;"
         offset="0"
         id="stop3178" />
      <stop
         style="stop-color:#faf6ea;stop-opacity:1;"
         offset="1"
         id="stop3180" />
    </linearGradient>
    <linearGradient
       id="linearGradient3228">
      <stop
         style="stop-color:#8c7d45;stop-opacity:1;"
         offset="0"
         id="stop3230" />
      <stop
         style="stop-color:#d6bf6a;stop-opacity:1;"
         offset="1"
         id="stop3232" />
    </linearGradient>
    <linearGradient
       id="linearGradient3220">
      <stop
         style="stop-color:#fffff0;stop-opacity:0;"
         offset="0"
         id="stop3222" />
      <stop
         style="stop-color:#ffffff;stop-opacity:1;"
         offset="1"
         id="stop3224" />
    </linearGradient>
    <inkscape:perspective
       sodipodi:type="inkscape:persp3d"
       inkscape:vp_x="0 : 526.18109 : 1"
       inkscape:vp_y="0 : 1000 : 0"
       inkscape:vp_z="744.09448 : 526.18109 : 1"
       inkscape:persp3d-origin="372.04724 : 350.78739 : 1"
       id="perspective10" />
    <inkscape:perspective
       id="perspective2390"
       inkscape:persp3d-origin="372.04724 : 350.78739 : 1"
       inkscape:vp_z="744.09448 : 526.18109 : 1"
       inkscape:vp_y="0 : 1000 : 0"
       inkscape:vp_x="0 : 526.18109 : 1"
       sodipodi:type="inkscape:persp3d" />
  </defs>
  <sodipodi:namedview
     id="base"
     pagecolor="#ffffff"
     bordercolor="#666666"
     borderopacity="1.0"
     gridtolerance="10000"
     guidetolerance="10"
     objecttolerance="10"
     inkscape:pageopacity="0.0"
     inkscape:pageshadow="2"
     inkscape:zoom="3.959798"
     inkscape:cx="11.897928"
     inkscape:cy="75.521768"
     inkscape:document-units="px"
     inkscape:current-layer="layer1"
     showgrid="false"
     inkscape:window-width="1440"
     inkscape:window-height="840"
     inkscape:window-x="-3"
     inkscape:window-y="25"
     inkscape:window-maximized="0" />
  <metadata
     id="metadata7">
    <rdf:RDF>
      <cc:Work
         rdf:about="">
        <dc:format>image/svg+xml</dc:format>
        <dc:type
           rdf:resource="http://purl.org/dc/dcmitype/StillImage" />
        <dc:title />
      </cc:Work>
    </rdf:RDF>
  </metadata>
  <g
     inkscape:label="Layer 1"
     inkscape:groupmode="layer"
     id="layer1">
    <rect
       style="opacity:1;fill:none;fill-opacity:1;stroke:#000000;stroke-width:1.14188492;stroke-linecap:round;stroke-linejoin:round;stroke-miterlimit:4;stroke-dasharray:none;stroke-opacity:1"
       id="rect3214"
       width="126.85812"
       height="126.85812"
       x="0.57094246"
       y="0.57094508" />
    <path
       style="fill:#000000;fill-opacity:1;stroke:none"
       id="path793"
       d="M 0.38663912,97.299628 C 0.6895284,96.471941 1.0014068,95.648219 1.3282351,94.829827 1.9286243,93.457548 2.3838952,92.039346 2.7597878,90.589582 3.2874094,88.395055 3.4467257,86.135109 3.5680117,83.886846 3.6640769,81.30675 4.5218202,78.884029 5.4702059,76.519844 5.6595209,76.101966 5.8382086,75.678968 6.0381507,75.26621 6.5702625,74.167723 6.8362149,73.760373 7.4135887,72.675032 8.0656633,71.449269 8.685358,70.20608 9.3362142,68.979511 10.443287,66.73445 11.853201,64.676727 13.267586,62.625303 c 1.52602,-2.211052 3.075205,-4.407816 4.777116,-6.484002 0.669059,-0.825267 1.428583,-1.569573 2.214869,-2.278473 0.169851,-0.153134 0.805324,-0.708797 1.039041,-0.851073 1.165245,-0.709347 2.351967,-1.381781 3.52795,-2.072671 1.133487,-0.378188 2.346998,-0.346662 3.519253,-0.226662 2.045636,0.163281 3.899333,1.019405 5.749401,1.848133 1.902028,0.888154 3.670447,2.076011 5.144641,3.585806 0.620329,0.740224 1.229069,1.514422 1.663573,2.386142 0.178754,0.358624 0.340454,0.788728 0.488312,1.161636 0.455783,1.206484 0.768388,2.453599 0.995381,3.722423 0.274943,1.660973 0.477349,3.33309 0.721724,4.998706 0.259217,1.947934 0.460293,3.902707 0.690153,5.854147 0.234,1.84987 0.437823,3.69616 0.807494,5.524455 0.336541,1.880659 0.989997,3.656764 1.707639,5.413861 0.614157,1.436185 1.293418,2.841202 1.97426,4.245561 0.635174,1.313937 1.658586,2.380533 2.64244,3.431916 1.335037,1.330105 2.90788,2.34742 4.554369,3.228743 1.12076,0.560279 2.265097,1.094106 3.474341,1.428362 0.762255,0.210701 1.023074,0.23551 1.800685,0.368988 1.524685,0.193626 3.067348,0.286939 4.602963,0.210837 1.055865,-0.153696 2.123275,-0.348854 3.135902,-0.699775 0.737172,-0.255464 1.029512,-0.427304 1.741507,-0.776544 0.302191,-0.177788 1.212278,-0.704864 0.906572,-0.533365 -3.290034,1.845687 -2.425641,1.474236 -1.281865,0.648582 0.794426,-0.573471 1.527844,-1.221573 2.253293,-1.879998 1.417231,-1.208162 2.745148,-2.512168 4.074398,-3.81686 1.558031,-1.451478 2.862362,-3.132083 4.175262,-4.803883 1.459197,-1.920013 2.966154,-3.803883 4.375538,-5.762132 1.407479,-2.124755 2.752501,-4.288047 4.234772,-6.360724 1.576508,-2.15267 3.389858,-4.109793 5.028521,-6.21079 1.086078,-1.391995 1.940618,-2.945639 2.866283,-4.447011 0.859354,-1.401348 1.857876,-2.709674 2.883638,-3.988605 1.807068,-2.110705 3.901488,-2.993678 6.354758,-4.377118 1.1951,-0.402707 2.45579,-0.401856 3.70001,-0.40957 1.49015,-0.004 2.98029,-0.0021 4.47043,-0.01 0.88316,0.03256 1.77421,-0.06733 2.65332,0.03412 0.78029,0.137964 1.56808,0.260529 2.34371,0.42701 0.71479,0.109791 1.40745,0.308346 2.06254,0.618666 0.62309,0.334308 1.10592,0.856578 1.60982,1.344802 0.38372,0.428633 0.68397,0.920592 1.02184,1.385235 0.27075,0.423245 0.40846,0.918422 0.53885,1.401234 0.12207,0.418374 0.30535,0.788954 0.53582,1.153772 0.27044,0.499373 0.63615,0.924831 0.89883,1.428877 0.23589,0.62376 0.4974,1.237994 0.71682,1.867947 0.22488,0.446983 0.37485,0.913542 0.45436,1.407453 0.0652,0.358766 0.22838,0.677328 0.38926,0.998567 0,0 -3.19176,1.843092 -3.19176,1.843092 l 0,0 c -0.17442,-0.35711 -0.34412,-0.713536 -0.45334,-1.098255 -0.0613,-0.47639 -0.19867,-0.923316 -0.40783,-1.355903 -0.19898,-0.615182 -0.45385,-1.21022 -0.69023,-1.811264 -0.26722,-0.485963 -0.61017,-0.915383 -0.88702,-1.395516 -0.27074,-0.392163 -0.46097,-0.800385 -0.59808,-1.259913 -0.1112,-0.439932 -0.23942,-0.890813 -0.47074,-1.281608 -0.31983,-0.450338 -0.60438,-0.926603 -0.97209,-1.339513 -0.47423,-0.465041 -0.93481,-0.951947 -1.54454,-1.234929 -0.6416,-0.275983 -1.31395,-0.442131 -2.00015,-0.560705 -0.77335,-0.142838 -1.54556,-0.307687 -2.32782,-0.388212 -0.86371,-0.04585 -1.72967,-0.02074 -2.59418,-0.04145 -1.47575,-0.02191 -2.9518,-0.03978 -4.4276,-0.01028 -1.23355,0.04401 -2.49323,0.07321 -3.65122,0.558798 0.85776,-0.517374 1.71735,-1.031653 2.57329,-1.552121 0.17188,-0.104522 -0.34916,0.199779 -0.52109,0.304246 -0.19224,0.116806 -0.3876,0.229252 -0.57124,0.359482 -0.6433,0.456168 -1.2142,1.011075 -1.75413,1.585495 -1.03338,1.264572 -2.02749,2.565324 -2.90362,3.948179 -0.947954,1.517757 -1.798722,3.105521 -2.912175,4.508713 -1.64623,2.115002 -3.510587,4.047176 -5.08757,6.220386 -1.467967,2.064036 -2.828175,4.198393 -4.183513,6.339593 -1.40777,1.962123 -2.93288,3.833504 -4.368229,5.774875 -0.228951,0.293043 -0.457903,0.586086 -0.686854,0.87913 -0.207544,0.280921 -0.40787,0.567476 -0.622632,0.842764 -0.861339,1.104091 -1.850418,2.099651 -2.814088,3.109854 -1.328486,1.306887 -2.636955,2.633589 -4.06872,3.827566 -0.723603,0.67168 -1.456559,1.338657 -2.246442,1.931039 -1.362194,1.021594 -3.627319,2.246972 -4.689515,2.87004 -0.306697,0.179904 -0.620883,0.346354 -0.931325,0.519531 -0.310052,0.143684 -0.614905,0.299508 -0.930154,0.431051 -1.30261,0.543534 -2.708468,0.815247 -4.101093,0.982047 -1.536166,0.0361 -3.073138,-0.0952 -4.593978,-0.31138 -1.881467,-0.357051 -3.641659,-0.95277 -5.321975,-1.898856 -1.678399,-0.906634 -3.27816,-1.957852 -4.653084,-3.302333 -1.008398,-1.076566 -2.095745,-2.154513 -2.723989,-3.513739 -0.659067,-1.423441 -1.34127,-2.835321 -1.95009,-4.282156 -0.132864,-0.324885 -0.527044,-1.278863 -0.645086,-1.607397 -0.454228,-1.264211 -0.73477,-2.578598 -1.070135,-3.877528 -0.126284,-0.589759 -0.286395,-1.294098 -0.3783,-1.89234 -0.186253,-1.212383 -0.242723,-2.444541 -0.460694,-3.653014 -0.212121,-1.950054 -0.38384,-3.90564 -0.674267,-5.846167 -0.267499,-1.653639 -0.477221,-3.316132 -0.763361,-4.96657 -0.221386,-1.243119 -0.563422,-2.458141 -0.984868,-3.647002 -0.481586,-1.264826 -1.114124,-2.450618 -2.030969,-3.452521 -1.427123,-1.500804 -3.133844,-2.675866 -5.024141,-3.50341 -1.834589,-0.826228 -3.703591,-1.596112 -5.734756,-1.707933 -1.160278,-0.04531 -2.373106,-0.07348 -3.449203,0.434747 0.875859,-0.522556 1.743316,-1.059859 2.627572,-1.567667 0.180742,-0.103797 -0.348625,0.229576 -0.515624,0.354823 -1.064434,0.798302 -2.032897,1.742401 -2.905346,2.748138 -1.736316,2.05644 -3.293789,4.254498 -4.826584,6.469284 -1.385966,2.05609 -2.797331,4.103679 -3.936269,6.315533 -0.66293,1.22989 -1.291935,2.476901 -1.948465,3.71017 -0.450062,0.84547 -0.9393765,1.693718 -1.359381,2.55594 -0.1976037,0.405658 -0.3729728,0.822066 -0.5594592,1.233099 -0.222947,0.551972 -0.7425,1.818131 -0.9392662,2.384962 -0.5456544,1.571886 -0.8789095,3.214441 -1.0060302,4.875285 -0.1326248,2.246397 -0.2092779,4.519884 -0.6932408,6.722767 -0.3627421,1.445624 -0.7577895,2.877275 -1.3462255,4.248642 -0.303473,0.801823 -0.6253189,1.595821 -0.8761327,2.416803 0,0 -3.34169328,1.591208 -3.34169328,1.591208 z"
       inkscape:connector-curvature="0" />
  </g>
</svg>
