/* XPM */
static const char *wlev2harmonic[] = {
/* columns rows colors chars-per-pixel */
"32 32 41 1 ",
"  c #222222",
". c gray17",
"X c gray19",
"o c #343434",
"O c #3A3A3A",
"+ c #4E4E4E",
"@ c #515151",
"# c #5D5D5D",
"$ c gray39",
"% c #6A6A6A",
"& c #6D6D6D",
"* c #767676",
"= c #7C7C7C",
"- c #818181",
"; c gray53",
": c #8D8D8D",
"> c #939393",
", c gray59",
"< c #9A9A9A",
"1 c #9D9D9D",
"2 c gray63",
"3 c gray64",
"4 c #AAAAAA",
"5 c #AFAFAF",
"6 c #B2B2B2",
"7 c #B7B7B7",
"8 c #B9B9B9",
"9 c gray74",
"0 c gray76",
"q c #CACACA",
"w c gray81",
"e c #D0D0D0",
"r c #D7D7D7",
"t c gray85",
"y c gray89",
"u c #E4E4E4",
"i c #E9E9E9",
"p c gray93",
"a c #F6F6F6",
"s c gray98",
"d c gray100",
/* pixels */
";777777777777777777777777777777;",
"7dddddddddddddddddddddddddddddd7",
"7dddddddddddddddddddddddddddddd7",
"7dddddddddddddddddddddddddddddd7",
"7dddddddddddddddddddddddddddddd7",
"7dddddddddddddddddddddddddddddd7",
"7dddddddddddddddddddddddddddddd7",
"7dddddddddddddddddddddddddddddd7",
"7dddddddddddddddddddddddddddddd7",
"7dddddddddddddddddddddddddddddd7",
"7dddddddddddddddddddddddddddddd7",
"7dddddddddddddddddddddddddddddd7",
"7ddddd9wddddddddddddddddddddddd7",
"7dddy19*oqddddddddddddddddt659a7",
"7dda=dddt tddddddddddddds70q0-.6",
"7dd;pdddd>-ddddddddddddd:udddd#&",
"7dq3dddddr+ddddddddddddq3dddddro",
"7d&ddddddsodddddddddddp:ddddddd7",
"747ddddddd.ddddddddddd=sddddddd7",
"7$ddddddddOuddddddddd3edddddddd7",
"6#dddddddd%4ddddddddt1ddddddddd7",
"<&dddddddd8+ddddddda-dddddddddd7",
"-,ddddddddd.qddddds:adddddddddd7",
"+udddddddddq.0ddda3sddddddddddd7",
"4dddddddddddy#+=3wddddddddddddd7",
"7ddddddddddddddaddddddddddddddd7",
"7dddddddddddddddddddddddddddddd7",
"7dddddddddddddddddddddddddddddd7",
"7dddddddddddddddddddddddddddddd7",
"7dddddddddddddddddddddddddddddd7",
"7dddddddddddddddddddddddddddddd7",
";777777777777777777777777777777;"
};
